<svg xmlns="http://www.w3.org/2000/svg" width="14.464" height="11.519" viewBox="0 0 14.464 11.519">
  <g id="noun_campaign_2981140" transform="translate(-19.15 -104.404)">
    <g id="Group_17" data-name="Group 17" transform="translate(19.35 104.608)">
      <path id="Path_10" data-name="Path 10" d="M21.02,107.295h2.495l5.872-2.646a.349.349,0,0,1,.511.308v3.157a1.584,1.584,0,0,1,.636.388h0a1.576,1.576,0,0,1,0,2.232h0a1.584,1.584,0,0,1-.636.388v3.157a.349.349,0,0,1-.491.317l-5.892-2.655h-.194l.589,2.751a.808.808,0,0,1-.616.99,1.11,1.11,0,0,1-1.272-.845l-.62-2.895H21.02a.348.348,0,0,1-.348-.348v-.618H19.7a.348.348,0,0,1-.348-.348v-2.021a.348.348,0,0,1,.348-.348h.974v-.618A.348.348,0,0,1,21.02,107.295Zm-.348,2.987v-1.325h-.626v1.325Zm9.226-1.406v1.487a.871.871,0,0,0,.145-.117h0a.887.887,0,0,0,0-1.25h0A.871.871,0,0,0,29.9,108.876Zm3.175,3.012a.348.348,0,0,1-.492.492L31.5,111.3a.348.348,0,0,1,.492-.492Zm-1.079-3.459a.348.348,0,0,1-.492-.492l1.079-1.079a.348.348,0,0,1,.492.492Zm-.47,1.538a.348.348,0,0,1,0-.7H33.05c.4,0,.566.691,0,.7Zm-8.914,1.977h-.5l.589,2.751a.422.422,0,0,0,.376.313c.227-.011.158-.148.122-.314Zm1.291-4.061v3.473l5.3,2.388v-8.249Zm-.7.108H21.368v3.257h1.837v-3.257Z" transform="translate(-19.35 -104.608)" fill="#fff" stroke="#fff" stroke-width="0.4"/>
    </g>
  </g>
</svg>
