<svg width="20" height="24" viewBox="0 0 20 24" fill="none" xmlns="http://www.w3.org/2000/svg">
<path d="M9.84875 11.5609C11.4352 11.5609 12.8087 10.9913 13.9313 9.86737C15.0535 8.74365 15.6227 7.36871 15.6227 5.78027C15.6227 4.19238 15.0537 2.81726 13.9311 1.69318C12.8085 0.569641 11.435 0 9.84875 0C8.26216 0 6.88882 0.569641 5.76641 1.69336C4.644 2.81708 4.07484 4.1922 4.07484 5.78027C4.07484 7.36871 4.644 8.74384 5.76641 9.86755C6.88919 10.9911 8.26271 11.5609 9.84875 11.5609ZM6.75988 2.68781C7.62112 1.82556 8.63142 1.40643 9.84875 1.40643C11.0659 1.40643 12.0764 1.82556 12.9378 2.68781C13.799 3.55023 14.2179 4.56189 14.2179 5.78027C14.2179 6.99902 13.799 8.0105 12.9378 8.87292C12.0764 9.73535 11.0659 10.1545 9.84875 10.1545C8.63178 10.1545 7.62149 9.73517 6.75988 8.87292C5.89846 8.01068 5.47963 6.99902 5.47963 5.78027C5.47963 4.56189 5.89846 3.55023 6.75988 2.68781Z" fill="#23A6F0"/>
<path d="M19.9515 18.4548C19.9192 17.9872 19.8537 17.4771 19.7573 16.9384C19.66 16.3956 19.5347 15.8826 19.3848 15.4136C19.2297 14.929 19.0191 14.4503 18.7585 13.9916C18.4884 13.5156 18.1709 13.101 17.8146 12.7599C17.4421 12.403 16.9859 12.1161 16.4585 11.9068C15.9328 11.6986 15.3503 11.5931 14.7272 11.5931C14.4825 11.5931 14.2458 11.6937 13.7888 11.9916C13.5075 12.1752 13.1785 12.3876 12.8112 12.6226C12.4972 12.8229 12.0718 13.0106 11.5464 13.1805C11.0337 13.3466 10.5132 13.4308 9.99927 13.4308C9.48571 13.4308 8.9652 13.3466 8.45218 13.1805C7.92728 13.0107 7.50169 12.8231 7.18821 12.6227C6.82444 12.39 6.49524 12.1776 6.20974 11.9914C5.75306 11.6935 5.5164 11.593 5.27169 11.593C4.64839 11.593 4.06606 11.6986 3.54061 11.907C3.01352 12.1159 2.5572 12.4028 2.18428 12.7601C1.82801 13.1014 1.51051 13.5157 1.24056 13.9916C0.980302 14.4503 0.769611 14.9288 0.614518 15.4138C0.464729 15.8828 0.339448 16.3956 0.242149 16.9384C0.145582 17.4763 0.0802897 17.9866 0.0479178 18.4554C0.0160945 18.9137 0 19.3907 0 19.8726C0 21.1254 0.397791 22.1396 1.18222 22.8876C1.95695 23.6257 2.98188 24 4.22865 24H15.7713C17.0178 24 18.0427 23.6257 18.8176 22.8876C19.6022 22.1402 20 21.1256 20 19.8724C19.9998 19.3889 19.9835 18.9119 19.9515 18.4548ZM17.849 21.8687C17.3371 22.3564 16.6575 22.5936 15.7712 22.5936H4.22865C3.34217 22.5936 2.66255 22.3564 2.15081 21.8688C1.64877 21.3904 1.4048 20.7372 1.4048 19.8726C1.4048 19.4229 1.41961 18.9789 1.44924 18.5526C1.47814 18.1344 1.53721 17.675 1.62481 17.1868C1.71132 16.7047 1.82142 16.2523 1.95237 15.8427C2.07802 15.4499 2.24939 15.061 2.46191 14.6863C2.66474 14.3293 2.89811 14.0229 3.15562 13.7761C3.39649 13.5452 3.70009 13.3563 4.05783 13.2145C4.38868 13.0834 4.7605 13.0117 5.16415 13.0009C5.21334 13.027 5.30095 13.077 5.44287 13.1697C5.73166 13.3581 6.06452 13.5731 6.4325 13.8083C6.8473 14.0731 7.38171 14.3123 8.02019 14.5186C8.67293 14.7299 9.33866 14.8372 9.99945 14.8372C10.6602 14.8372 11.3262 14.7299 11.9785 14.5188C12.6176 14.3121 13.1518 14.0731 13.5671 13.808C13.9437 13.567 14.2672 13.3583 14.556 13.1697C14.698 13.0772 14.7856 13.027 14.8348 13.0009C15.2386 13.0117 15.6104 13.0834 15.9414 13.2145C16.299 13.3563 16.6026 13.5454 16.8435 13.7761C17.101 14.0228 17.3343 14.3291 17.5372 14.6865C17.7499 15.061 17.9214 15.4501 18.0469 15.8425C18.178 16.2526 18.2883 16.7049 18.3746 17.1866C18.4621 17.6757 18.5213 18.1353 18.5502 18.5528V18.5532C18.58 18.9778 18.595 19.4216 18.5952 19.8726C18.595 20.7374 18.351 21.3904 17.849 21.8687Z" fill="#23A6F0"/>
</svg>
