<svg xmlns="http://www.w3.org/2000/svg" width="553.654" height="59.542" viewBox="0 0 553.654 59.542">
  <g id="Group_8807" data-name="Group 8807" transform="translate(-24 -26.976)">
    <g id="Group_8806" data-name="Group 8806">
      <g id="Group_8805" data-name="Group 8805">
        <g id="Group_8803" data-name="Group 8803">
          <g id="noun_campaign_2981140" transform="translate(69.65 -74.608)">
            <g id="Group_17" data-name="Group 17" transform="translate(19.35 104.608)">
              <path id="Path_10" data-name="Path 10" d="M21.02,107.295h2.495l5.872-2.646a.349.349,0,0,1,.511.308v3.157a1.584,1.584,0,0,1,.636.388h0a1.576,1.576,0,0,1,0,2.232h0a1.584,1.584,0,0,1-.636.388v3.157a.349.349,0,0,1-.491.317l-5.892-2.655h-.194l.589,2.751a.808.808,0,0,1-.616.99,1.11,1.11,0,0,1-1.272-.845l-.62-2.895H21.02a.348.348,0,0,1-.348-.348v-.618H19.7a.348.348,0,0,1-.348-.348v-2.021a.348.348,0,0,1,.348-.348h.974v-.618A.348.348,0,0,1,21.02,107.295Zm-.348,2.987v-1.325h-.626v1.325Zm9.226-1.406v1.487a.871.871,0,0,0,.145-.117h0a.887.887,0,0,0,0-1.25h0A.871.871,0,0,0,29.9,108.876Zm3.175,3.012a.348.348,0,0,1-.492.492L31.5,111.3a.348.348,0,0,1,.492-.492Zm-1.079-3.459a.348.348,0,0,1-.492-.492l1.079-1.079a.348.348,0,0,1,.492.492Zm-.47,1.538a.348.348,0,0,1,0-.7H33.05c.4,0,.566.691,0,.7Zm-8.914,1.977h-.5l.589,2.751a.422.422,0,0,0,.376.313c.227-.011.158-.148.122-.314Zm1.291-4.061v3.473l5.3,2.388v-8.249Zm-.7.108H21.368v3.257h1.837v-3.257Z" transform="translate(-19.35 -104.608)" fill="#fff" stroke="#fff" stroke-width="0.4"/>
            </g>
          </g>
          <g id="noun_Home_99651" transform="translate(33.325 5.925)">
            <path id="Path_13" data-name="Path 13" d="M25.347,30.013a.674.674,0,0,0,.469-.2l.493-.493v6.34a.663.663,0,0,0,.666.666h7.894a.663.663,0,0,0,.666-.666v-6.34l.493.493a.641.641,0,0,0,.937,0,.662.662,0,0,0,0-.937l-5.575-5.6a.641.641,0,0,0-.937,0l-5.575,5.6a.641.641,0,0,0,0,.937A.674.674,0,0,0,25.347,30.013Zm5.575-5.3L34.2,27.99V35H27.641V27.99Z" fill="#fff" stroke="#fff" stroke-width="0.5"/>
          </g>
          <g id="noun_menu_678016" transform="translate(11 8.316)">
            <g id="Group_2" data-name="Group 2" transform="translate(5 18.684)">
              <g id="Group_1" data-name="Group 1">
                <path id="Path_5485" data-name="Path 5485" d="M32,61.927a1.241,1.241,0,0,1,1.244-1.243h9.4a1.243,1.243,0,1,1,0,2.487h-9.4A1.241,1.241,0,0,1,32,61.927Zm0,6.459a1.244,1.244,0,0,1,1.237-1.243H46.385a1.243,1.243,0,0,1,0,2.487H33.237A1.237,1.237,0,0,1,32,68.387Zm0,6.459A1.247,1.247,0,0,1,33.252,73.6h6.9a1.243,1.243,0,1,1,0,2.487h-6.9A1.244,1.244,0,0,1,32,74.846Z" transform="translate(-24 -59.684)" fill="#fff"/>
              </g>
            </g>
          </g>
          <g id="noun_profil_2022869" transform="translate(99.26 6.26)">
            <path id="Path_21" data-name="Path 21" d="M29.664,22.74a6.924,6.924,0,1,0,6.924,6.924,6.924,6.924,0,0,0-6.924-6.924Zm0,1.13a5.794,5.794,0,0,1,4.8,9.032,5.651,5.651,0,0,0-2.575-2.222,3.109,3.109,0,1,0-4.455,0,5.651,5.651,0,0,0-2.575,2.228,5.794,5.794,0,0,1,4.8-9.037Zm-1.979,4.646a1.979,1.979,0,1,1,1.979,1.976A1.979,1.979,0,0,1,27.685,28.516Zm-2.047,5.3a4.544,4.544,0,0,1,2.314-2.141,4.1,4.1,0,0,1,.742-.236,2.85,2.85,0,0,0,1.94,0,4.173,4.173,0,0,1,.762.229A4.541,4.541,0,0,1,33.7,33.809a5.766,5.766,0,0,1-8.052,0Z" transform="translate(0)" fill="#fff"/>
          </g>
          <g id="noun_logout_3391395_1_" data-name="noun_logout_3391395 (1)" transform="translate(186 28)">
            <g id="_13" data-name="13" transform="translate(2 1)">
              <path id="Path_22" data-name="Path 22" d="M12.573,9.013H7.507A.507.507,0,1,1,7.507,8h5.066a.507.507,0,0,1,0,1.013Z" transform="translate(-1.934 -0.829)" fill="#fff" stroke="#fff" stroke-width="0.5"/>
              <path id="Path_23" data-name="Path 23" d="M13.533,9.04a.476.476,0,0,1-.355-.152L11.152,6.861a.5.5,0,0,1,.709-.709l2.027,2.027a.486.486,0,0,1,0,.709.476.476,0,0,1-.355.152Z" transform="translate(-1.881 -0.856)" fill="#fff" stroke="#fff" stroke-width="0.5"/>
              <path id="Path_24" data-name="Path 24" d="M11.507,11.04a.476.476,0,0,1-.355-.152.486.486,0,0,1,0-.709l2.027-2.027a.5.5,0,1,1,.709.709l-2.027,2.027a.476.476,0,0,1-.355.152Z" transform="translate(-1.881 -0.829)" fill="#fff" stroke="#fff" stroke-width="0.5"/>
              <path id="Path_25" data-name="Path 25" d="M10.613,15.341H2.507A.507.507,0,0,1,2,14.835V1.507A.507.507,0,0,1,2.507,1h8.106a.507.507,0,0,1,.507.507V3.689a.507.507,0,1,1-1.013,0V2.013H3.013V14.328h7.093v-.662a.507.507,0,1,1,1.013,0v1.169A.507.507,0,0,1,10.613,15.341Z" transform="translate(-2 -1)" fill="#fff" stroke="#fff" stroke-width="0.5"/>
            </g>
          </g>
          <g id="Group_8700" data-name="Group 8700" transform="translate(-2491 -2502)">
            <path id="Path_7278" data-name="Path 7278" d="M18.547,8.27H8.319A2.323,2.323,0,0,0,6,10.589v6.058a2.323,2.323,0,0,0,2.319,2.319h5.326l.27.2,3.336,2.493-.4-1.4-.37-1.292h2.064a2.323,2.323,0,0,0,2.319-2.321V10.589A2.323,2.323,0,0,0,18.547,8.27Zm-8.54,6.374a.971.971,0,1,1,.965-.958.971.971,0,0,1-.965.958Zm3.416,0a.971.971,0,1,1,.98-.966A.982.982,0,0,1,13.423,14.644Zm3.436,0a.97.97,0,1,1,.686-.288A.971.971,0,0,1,16.859,14.644Z" transform="translate(2705.014 2522.744)" fill="none" stroke="#fff" stroke-width="0.8"/>
            <path id="Path_7279" data-name="Path 7279" d="M13.56,2.27H3.333A3.333,3.333,0,0,0,0,5.6v6.058a3.333,3.333,0,0,0,3.333,3.333H8.322L12.4,18.035a1.461,1.461,0,0,0,.787.353c.372,0,.507-.392.3-1.107l-.657-2.287h.72a3.333,3.333,0,0,0,3.335-3.333V5.6A3.333,3.333,0,0,0,13.56,2.27Zm2.319,9.391A2.323,2.323,0,0,1,13.56,13.98H11.5l.37,1.292.4,1.4L8.928,14.181l-.27-.2H3.333a2.323,2.323,0,0,1-2.319-2.319V5.6A2.323,2.323,0,0,1,3.333,3.284H13.56A2.323,2.323,0,0,1,15.88,5.6Z" transform="translate(2710 2527.73)" fill="#fff" stroke="#fff" stroke-width="0.8"/>
            <path id="Path_7280" data-name="Path 7280" d="M45.2,34.51a.971.971,0,1,0,.968.976A.971.971,0,0,0,45.2,34.51Z" transform="translate(2673.242 2500.936)" fill="#fff" stroke="#fff" stroke-width="0.8"/>
            <path id="Path_7281" data-name="Path 7281" d="M24.925,34.51a.968.968,0,1,0,.683.292A.971.971,0,0,0,24.925,34.51Z" transform="translate(2690.104 2500.937)" fill="#fff" stroke="#fff" stroke-width="0.8"/>
            <path id="Path_7282" data-name="Path 7282" d="M65.485,34.5a.971.971,0,1,0,.958.965A.971.971,0,0,0,65.485,34.5Z" transform="translate(2656.396 2500.945)" fill="#fff" stroke="#fff" stroke-width="0.8"/>
          </g>
          <g id="Group_8798" data-name="Group 8798" transform="translate(154 30)">
            <g id="Group_8797" data-name="Group 8797">
              <path id="Path_7444" data-name="Path 7444" d="M20.592,8.408V7H19.3V8.408H18V9.815h1.3v1.408h1.3V9.815h1.3V8.408Z" transform="translate(-6.335 -4.889)" fill="#fff"/>
              <path id="Path_7445" data-name="Path 7445" d="M6.592,9.63A2.71,2.71,0,0,0,9.185,6.815,2.71,2.71,0,0,0,6.592,4,2.71,2.71,0,0,0,4,6.815,2.71,2.71,0,0,0,6.592,9.63Zm0-4.223a1.359,1.359,0,0,1,1.3,1.408,1.359,1.359,0,0,1-1.3,1.408A1.359,1.359,0,0,1,5.3,6.815,1.359,1.359,0,0,1,6.592,5.408Z" transform="translate(-1.408 -4)" fill="#fff"/>
              <path id="Path_7446" data-name="Path 7446" d="M5.185,13C3.454,13,0,13.943,0,15.815v2.111H10.369V15.815C10.369,13.943,6.915,13,5.185,13Zm3.888,3.519H1.3v-.7c.13-.507,2.139-1.415,3.888-1.415s3.759.908,3.888,1.408Z" transform="translate(0 -6.666)" fill="#fff"/>
              <path id="Path_7447" data-name="Path 7447" d="M12.51,4.05a4.484,4.484,0,0,1,0,5.56,2.736,2.736,0,0,0,2.262-2.78A2.736,2.736,0,0,0,12.51,4.05Z" transform="translate(-4.403 -4.015)" fill="#fff"/>
              <path id="Path_7448" data-name="Path 7448" d="M16.53,13.83a3.093,3.093,0,0,1,.953,2.231v2.111h1.3V16.061C18.779,15.04,17.748,14.294,16.53,13.83Z" transform="translate(-5.817 -6.912)" fill="#fff"/>
            </g>
          </g>
          <g id="noun_notification_3408002" transform="translate(239.638 24.726)">
            <path id="Path_26" data-name="Path 26" d="M23.965,13.836l-.788-.946a3.337,3.337,0,0,1-.753-2.12V9a5.049,5.049,0,0,0-4.4-4.993V3.131a.631.631,0,1,0-1.261,0v.876A5.049,5.049,0,0,0,12.366,9v1.77a3.337,3.337,0,0,1-.753,2.12l-.771.946a1.655,1.655,0,0,0,1.279,2.7h2.418a2.887,2.887,0,0,0,5.747,0H22.7a1.643,1.643,0,0,0,1.489-.946A1.718,1.718,0,0,0,23.965,13.836Zm-6.57,4.047A1.62,1.62,0,0,1,15.8,16.516h3.189A1.62,1.62,0,0,1,17.394,17.883Zm5.642-2.838a.372.372,0,0,1-.35.228H12.1a.372.372,0,0,1-.35-.228.387.387,0,0,1,.053-.42l.771-.946a4.657,4.657,0,0,0,1.034-2.926V9a3.776,3.776,0,0,1,7.551-.018v1.77A4.657,4.657,0,0,0,22.2,13.678l.771.946A.367.367,0,0,1,23.036,15.045Z" fill="#397ac6" stroke="#397ac6" stroke-width="0.5"/>
          </g>
          <path id="Path_7449" data-name="Path 7449" d="M23.608,22.765l-2.422-2.422a5.782,5.782,0,1,0-.927.943l2.422,2.422a.642.642,0,0,0,.455.2.59.59,0,0,0,.455-.2A.683.683,0,0,0,23.608,22.765Zm-2.438-6.1a4.551,4.551,0,1,1-1.333-3.235A4.549,4.549,0,0,1,21.169,16.669Z" transform="translate(267.486 18.572)" fill="#8693b1"/>
          <g id="Group_8708" data-name="Group 8708" transform="translate(-984.256 -69)">
            <circle id="Ellipse_38" data-name="Ellipse 38" cx="2" cy="2" r="2" transform="translate(1316 102)" fill="#7a8295"/>
            <circle id="Ellipse_39" data-name="Ellipse 39" cx="2" cy="2" r="2" transform="translate(1322 102)" fill="#7a8295"/>
            <circle id="Ellipse_40" data-name="Ellipse 40" cx="2" cy="2" r="2" transform="translate(1328 102)" fill="#7a8295"/>
          </g>
          <g id="Group_8711" data-name="Group 8711" transform="translate(303.488 27)">
            <g id="Group_8710" data-name="Group 8710" transform="translate(2 2)">
              <path id="Path_7389" data-name="Path 7389" d="M13.786,16.086h1.5a.384.384,0,0,0,.386-.386V14.586a.384.384,0,0,0-.386-.386h-1.5a.384.384,0,0,0-.386.386V15.7A.384.384,0,0,0,13.786,16.086Z" transform="translate(-8.514 -8.971)" fill="#8693b1" fill-rule="evenodd"/>
              <path id="Path_7390" data-name="Path 7390" d="M20.786,22.186h1.5a.384.384,0,0,0,.386-.386V20.686a.384.384,0,0,0-.386-.386h-1.5a.384.384,0,0,0-.386.386V21.8A.36.36,0,0,0,20.786,22.186Z" transform="translate(-12.514 -12.457)" fill="#8693b1" fill-rule="evenodd"/>
              <path id="Path_7391" data-name="Path 7391" d="M20.786,16.086h1.5a.384.384,0,0,0,.386-.386V14.586a.384.384,0,0,0-.386-.386h-1.5a.384.384,0,0,0-.386.386V15.7A.384.384,0,0,0,20.786,16.086Z" transform="translate(-12.514 -8.971)" fill="#8693b1" fill-rule="evenodd"/>
              <path id="Path_7392" data-name="Path 7392" d="M6.786,22.186h1.5a.384.384,0,0,0,.386-.386V20.686a.384.384,0,0,0-.386-.386h-1.5a.384.384,0,0,0-.386.386V21.8A.36.36,0,0,0,6.786,22.186Z" transform="translate(-4.514 -12.457)" fill="#8693b1" fill-rule="evenodd"/>
              <path id="Path_7393" data-name="Path 7393" d="M6.786,16.086h1.5a.384.384,0,0,0,.386-.386V14.586a.384.384,0,0,0-.386-.386h-1.5a.384.384,0,0,0-.386.386V15.7A.384.384,0,0,0,6.786,16.086Z" transform="translate(-4.514 -8.971)" fill="#8693b1" fill-rule="evenodd"/>
              <path id="Path_7394" data-name="Path 7394" d="M13.786,22.186h1.5a.384.384,0,0,0,.386-.386V20.686a.384.384,0,0,0-.386-.386h-1.5a.384.384,0,0,0-.386.386V21.8A.36.36,0,0,0,13.786,22.186Z" transform="translate(-8.514 -12.457)" fill="#8693b1" fill-rule="evenodd"/>
              <path id="Path_7395" data-name="Path 7395" d="M13.271,2H2.771A.76.76,0,0,0,2,2.729v10.5A.768.768,0,0,0,2.771,14h10.5a.768.768,0,0,0,.771-.771V2.729A.824.824,0,0,0,13.271,2ZM9.5,3.5a.386.386,0,1,1-.386.386A.384.384,0,0,1,9.5,3.5Zm-3,0a.386.386,0,1,1-.386.386A.384.384,0,0,1,6.5,3.5Zm6.771,9.386a.384.384,0,0,1-.386.386H3.114a.384.384,0,0,1-.386-.386V5.729h10.5v7.157Z" transform="translate(-2 -2)" fill="#8693b1" fill-rule="evenodd"/>
            </g>
          </g>
          <path id="Path_7450" data-name="Path 7450" d="M31.216,19.156,27.276,15.2a.709.709,0,0,1,0-.988l3.94-3.94a.7.7,0,0,1,.988.988l-3.452,3.452L32.2,18.168a.7.7,0,0,1-.988.988Z" transform="translate(354.644 66.74) rotate(-90)" fill="#8693b1" fill-rule="evenodd"/>
          <path id="noun-folder-4462511" d="M132.468,89.234h-4.988l-.944-1.226a1.308,1.308,0,0,0-1.03-.507H123.8a1.3,1.3,0,0,0-1.3,1.3v6.934a1.3,1.3,0,0,0,1.3,1.3h8.668a1.3,1.3,0,0,0,1.3-1.3v-5.2a1.3,1.3,0,0,0-1.3-1.3Zm.433,1.813a1.287,1.287,0,0,0-.433-.08h-6.934a1.3,1.3,0,0,0-1.3,1.3v3.9H123.8a.433.433,0,0,1-.433-.433V88.8a.433.433,0,0,1,.433-.433h1.707a.429.429,0,0,1,.343.169l1.074,1.4a.434.434,0,0,0,.344.169h5.2a.433.433,0,0,1,.433.433Z" transform="translate(261.5 -56.92)" fill="#8693b1"/>
          <g id="Group" transform="translate(396.638 18.372)">
            <path id="Compound_Path" data-name="Compound Path" d="M18.4,12.1H17.336v-.695a.409.409,0,1,0-.817,0V12.1H12.111v-.695a.409.409,0,1,0-.817,0V12.1H10.128a1.5,1.5,0,0,0-1.5,1.5v6.523a1.5,1.5,0,0,0,1.5,1.5H18.4a1.5,1.5,0,0,0,1.5-1.5V13.6A1.5,1.5,0,0,0,18.4,12.1Zm-6.883,6.907a1.1,1.1,0,1,1,1.1-1.1A1.1,1.1,0,0,1,11.517,19.011Zm2.771,0a1.1,1.1,0,1,1,1.1-1.1,1.1,1.1,0,0,1-1.1,1.1Zm2.771,0a1.1,1.1,0,1,1,1.1-1.1,1.1,1.1,0,0,1-1.1,1.1Zm2.021-4.334H9.447V13.6a.681.681,0,0,1,.681-.681h1.166v.531a.409.409,0,0,0,.817,0V12.92h4.408v.531a.409.409,0,0,0,.817,0V12.92H18.4a.681.681,0,0,1,.681.681Z" transform="translate(0 0)" fill="#8693b1"/>
          </g>
          <g id="noun-file-1017602" transform="translate(205.335 -95.181)">
            <path id="Path_7441" data-name="Path 7441" d="M233.247,126.427h-2.9v-2.9Zm-3.441,1.076a.539.539,0,0,1-.538-.538V123.2H221.74a.539.539,0,0,0-.538.538v13.981a.539.539,0,0,0,.538.538h11.292a.539.539,0,0,0,.538-.538V127.5Z" transform="translate(0 0)" fill="#8693b1"/>
          </g>
          <path id="Path_7442" data-name="Path 7442" d="M109.455,35a4.455,4.455,0,1,0,4.455,4.455A4.455,4.455,0,0,0,109.455,35ZM112,39.773h-2.227V42h-.636V39.773h-2.227v-.636h2.227V36.909h.636v2.227H112Z" transform="translate(343.905 -3.795)" fill="#397ac6"/>
          <path id="Path_7451" data-name="Path 7451" d="M31.216,19.156,27.276,15.2a.709.709,0,0,1,0-.988l3.94-3.94a.7.7,0,0,1,.988.988l-3.452,3.452L32.2,18.168a.7.7,0,0,1-.988.988Z" transform="translate(457.739 64.74) rotate(-90)" fill="#1c204d" stroke="#1c204d" stroke-width="1" fill-rule="evenodd"/>
          <path id="Path_7452" data-name="Path 7452" d="M31.216,19.156,27.276,15.2a.709.709,0,0,1,0-.988l3.94-3.94a.7.7,0,0,1,.988.988l-3.452,3.452L32.2,18.168a.7.7,0,0,1-.988.988Z" transform="translate(501.075 5.26) rotate(90)" fill="#606063" stroke="#606063" stroke-width="1" fill-rule="evenodd"/>
        </g>
        <g id="Group_8804" data-name="Group 8804">
          <g id="noun_campaign_2981140-2" data-name="noun_campaign_2981140" transform="translate(69.65 -32.608)">
            <g id="Group_17-2" data-name="Group 17" transform="translate(19.35 104.608)">
              <path id="Path_10-2" data-name="Path 10" d="M21.02,107.295h2.495l5.872-2.646a.349.349,0,0,1,.511.308v3.157a1.584,1.584,0,0,1,.636.388h0a1.576,1.576,0,0,1,0,2.232h0a1.584,1.584,0,0,1-.636.388v3.157a.349.349,0,0,1-.491.317l-5.892-2.655h-.194l.589,2.751a.808.808,0,0,1-.616.99,1.11,1.11,0,0,1-1.272-.845l-.62-2.895H21.02a.348.348,0,0,1-.348-.348v-.618H19.7a.348.348,0,0,1-.348-.348v-2.021a.348.348,0,0,1,.348-.348h.974v-.618A.348.348,0,0,1,21.02,107.295Zm-.348,2.987v-1.325h-.626v1.325Zm9.226-1.406v1.487a.871.871,0,0,0,.145-.117h0a.887.887,0,0,0,0-1.25h0A.871.871,0,0,0,29.9,108.876Zm3.175,3.012a.348.348,0,0,1-.492.492L31.5,111.3a.348.348,0,0,1,.492-.492Zm-1.079-3.459a.348.348,0,0,1-.492-.492l1.079-1.079a.348.348,0,0,1,.492.492Zm-.47,1.538a.348.348,0,0,1,0-.7H33.05c.4,0,.566.691,0,.7Zm-8.914,1.977h-.5l.589,2.751a.422.422,0,0,0,.376.313c.227-.011.158-.148.122-.314Zm1.291-4.061v3.473l5.3,2.388v-8.249Zm-.7.108H21.368v3.257h1.837v-3.257Z" transform="translate(-19.35 -104.608)" fill="#f0933c" stroke="#f0933c" stroke-width="0.4"/>
            </g>
          </g>
          <g id="noun_Home_99651-2" data-name="noun_Home_99651" transform="translate(33.325 47.925)">
            <path id="Path_13-2" data-name="Path 13" d="M25.347,30.013a.674.674,0,0,0,.469-.2l.493-.493v6.34a.663.663,0,0,0,.666.666h7.894a.663.663,0,0,0,.666-.666v-6.34l.493.493a.641.641,0,0,0,.937,0,.662.662,0,0,0,0-.937l-5.575-5.6a.641.641,0,0,0-.937,0l-5.575,5.6a.641.641,0,0,0,0,.937A.674.674,0,0,0,25.347,30.013Zm5.575-5.3L34.2,27.99V35H27.641V27.99Z" fill="#f0933c" stroke="#f0933c" stroke-width="0.5"/>
          </g>
          <g id="noun_menu_678016-2" data-name="noun_menu_678016" transform="translate(11 50.316)">
            <g id="Group_2-2" data-name="Group 2" transform="translate(5 18.684)">
              <g id="Group_1-2" data-name="Group 1">
                <path id="Path_5485-2" data-name="Path 5485" d="M32,61.927a1.241,1.241,0,0,1,1.244-1.243h9.4a1.243,1.243,0,1,1,0,2.487h-9.4A1.241,1.241,0,0,1,32,61.927Zm0,6.459a1.244,1.244,0,0,1,1.237-1.243H46.385a1.243,1.243,0,0,1,0,2.487H33.237A1.237,1.237,0,0,1,32,68.387Zm0,6.459A1.247,1.247,0,0,1,33.252,73.6h6.9a1.243,1.243,0,1,1,0,2.487h-6.9A1.244,1.244,0,0,1,32,74.846Z" transform="translate(-24 -59.684)" fill="#f0933c"/>
              </g>
            </g>
          </g>
          <g id="noun_profil_2022869-2" data-name="noun_profil_2022869" transform="translate(99.26 48.26)">
            <path id="Path_21-2" data-name="Path 21" d="M29.664,22.74a6.924,6.924,0,1,0,6.924,6.924,6.924,6.924,0,0,0-6.924-6.924Zm0,1.13a5.794,5.794,0,0,1,4.8,9.032,5.651,5.651,0,0,0-2.575-2.222,3.109,3.109,0,1,0-4.455,0,5.651,5.651,0,0,0-2.575,2.228,5.794,5.794,0,0,1,4.8-9.037Zm-1.979,4.646a1.979,1.979,0,1,1,1.979,1.976A1.979,1.979,0,0,1,27.685,28.516Zm-2.047,5.3a4.544,4.544,0,0,1,2.314-2.141,4.1,4.1,0,0,1,.742-.236,2.85,2.85,0,0,0,1.94,0,4.173,4.173,0,0,1,.762.229A4.541,4.541,0,0,1,33.7,33.809a5.766,5.766,0,0,1-8.052,0Z" transform="translate(0)" fill="#f0933c"/>
          </g>
          <g id="noun_logout_3391395_1_2" data-name="noun_logout_3391395 (1)" transform="translate(186 70)">
            <g id="_13-2" data-name="13" transform="translate(2 1)">
              <path id="Path_22-2" data-name="Path 22" d="M12.573,9.013H7.507A.507.507,0,1,1,7.507,8h5.066a.507.507,0,0,1,0,1.013Z" transform="translate(-1.934 -0.829)" fill="#f0933c" stroke="#f0933c" stroke-width="0.5"/>
              <path id="Path_23-2" data-name="Path 23" d="M13.533,9.04a.476.476,0,0,1-.355-.152L11.152,6.861a.5.5,0,0,1,.709-.709l2.027,2.027a.486.486,0,0,1,0,.709.476.476,0,0,1-.355.152Z" transform="translate(-1.881 -0.856)" fill="#f0933c" stroke="#f0933c" stroke-width="0.5"/>
              <path id="Path_24-2" data-name="Path 24" d="M11.507,11.04a.476.476,0,0,1-.355-.152.486.486,0,0,1,0-.709l2.027-2.027a.5.5,0,1,1,.709.709l-2.027,2.027a.476.476,0,0,1-.355.152Z" transform="translate(-1.881 -0.829)" fill="#f0933c" stroke="#f0933c" stroke-width="0.5"/>
              <path id="Path_25-2" data-name="Path 25" d="M10.613,15.341H2.507A.507.507,0,0,1,2,14.835V1.507A.507.507,0,0,1,2.507,1h8.106a.507.507,0,0,1,.507.507V3.689a.507.507,0,1,1-1.013,0V2.013H3.013V14.328h7.093v-.662a.507.507,0,1,1,1.013,0v1.169A.507.507,0,0,1,10.613,15.341Z" transform="translate(-2 -1)" fill="#f0933c" stroke="#f0933c" stroke-width="0.5"/>
            </g>
          </g>
          <g id="Group_8800" data-name="Group 8800" transform="translate(-2491 -2460)">
            <path id="Path_7278-2" data-name="Path 7278" d="M18.547,8.27H8.319A2.323,2.323,0,0,0,6,10.589v6.058a2.323,2.323,0,0,0,2.319,2.319h5.326l.27.2,3.336,2.493-.4-1.4-.37-1.292h2.064a2.323,2.323,0,0,0,2.319-2.321V10.589A2.323,2.323,0,0,0,18.547,8.27Zm-8.54,6.374a.971.971,0,1,1,.965-.958.971.971,0,0,1-.965.958Zm3.416,0a.971.971,0,1,1,.98-.966A.982.982,0,0,1,13.423,14.644Zm3.436,0a.97.97,0,1,1,.686-.288A.971.971,0,0,1,16.859,14.644Z" transform="translate(2705.014 2522.744)" fill="none" stroke="#f0933c" stroke-width="0.8"/>
            <path id="Path_7279-2" data-name="Path 7279" d="M13.56,2.27H3.333A3.333,3.333,0,0,0,0,5.6v6.058a3.333,3.333,0,0,0,3.333,3.333H8.322L12.4,18.035a1.461,1.461,0,0,0,.787.353c.372,0,.507-.392.3-1.107l-.657-2.287h.72a3.333,3.333,0,0,0,3.335-3.333V5.6A3.333,3.333,0,0,0,13.56,2.27Zm2.319,9.391A2.323,2.323,0,0,1,13.56,13.98H11.5l.37,1.292.4,1.4L8.928,14.181l-.27-.2H3.333a2.323,2.323,0,0,1-2.319-2.319V5.6A2.323,2.323,0,0,1,3.333,3.284H13.56A2.323,2.323,0,0,1,15.88,5.6Z" transform="translate(2710 2527.73)" fill="#f0933c" stroke="#f0933c" stroke-width="0.8"/>
            <path id="Path_7280-2" data-name="Path 7280" d="M45.2,34.51a.971.971,0,1,0,.968.976A.971.971,0,0,0,45.2,34.51Z" transform="translate(2673.242 2500.936)" fill="#f0933c" stroke="#f0933c" stroke-width="0.8"/>
            <path id="Path_7281-2" data-name="Path 7281" d="M24.925,34.51a.968.968,0,1,0,.683.292A.971.971,0,0,0,24.925,34.51Z" transform="translate(2690.104 2500.937)" fill="#f0933c" stroke="#f0933c" stroke-width="0.8"/>
            <path id="Path_7282-2" data-name="Path 7282" d="M65.485,34.5a.971.971,0,1,0,.958.965A.971.971,0,0,0,65.485,34.5Z" transform="translate(2656.396 2500.945)" fill="#f0933c" stroke="#f0933c" stroke-width="0.8"/>
          </g>
          <g id="Group_8799" data-name="Group 8799" transform="translate(154 72)">
            <g id="Group_8797-2" data-name="Group 8797">
              <path id="Path_7444-2" data-name="Path 7444" d="M20.592,8.408V7H19.3V8.408H18V9.815h1.3v1.408h1.3V9.815h1.3V8.408Z" transform="translate(-6.335 -4.889)" fill="#f0933c"/>
              <path id="Path_7445-2" data-name="Path 7445" d="M6.592,9.63A2.71,2.71,0,0,0,9.185,6.815,2.71,2.71,0,0,0,6.592,4,2.71,2.71,0,0,0,4,6.815,2.71,2.71,0,0,0,6.592,9.63Zm0-4.223a1.359,1.359,0,0,1,1.3,1.408,1.359,1.359,0,0,1-1.3,1.408A1.359,1.359,0,0,1,5.3,6.815,1.359,1.359,0,0,1,6.592,5.408Z" transform="translate(-1.408 -4)" fill="#f0933c"/>
              <path id="Path_7446-2" data-name="Path 7446" d="M5.185,13C3.454,13,0,13.943,0,15.815v2.111H10.369V15.815C10.369,13.943,6.915,13,5.185,13Zm3.888,3.519H1.3v-.7c.13-.507,2.139-1.415,3.888-1.415s3.759.908,3.888,1.408Z" transform="translate(0 -6.666)" fill="#f0933c"/>
              <path id="Path_7447-2" data-name="Path 7447" d="M12.51,4.05a4.484,4.484,0,0,1,0,5.56,2.736,2.736,0,0,0,2.262-2.78A2.736,2.736,0,0,0,12.51,4.05Z" transform="translate(-4.403 -4.015)" fill="#f0933c"/>
              <path id="Path_7448-2" data-name="Path 7448" d="M16.53,13.83a3.093,3.093,0,0,1,.953,2.231v2.111h1.3V16.061C18.779,15.04,17.748,14.294,16.53,13.83Z" transform="translate(-5.817 -6.912)" fill="#f0933c"/>
            </g>
          </g>
          <g id="noun_notification_3408002-2" data-name="noun_notification_3408002" transform="translate(239.638 66.726)">
            <path id="Path_26-2" data-name="Path 26" d="M23.965,13.836l-.788-.946a3.337,3.337,0,0,1-.753-2.12V9a5.049,5.049,0,0,0-4.4-4.993V3.131a.631.631,0,1,0-1.261,0v.876A5.049,5.049,0,0,0,12.366,9v1.77a3.337,3.337,0,0,1-.753,2.12l-.771.946a1.655,1.655,0,0,0,1.279,2.7h2.418a2.887,2.887,0,0,0,5.747,0H22.7a1.643,1.643,0,0,0,1.489-.946A1.718,1.718,0,0,0,23.965,13.836Zm-6.57,4.047A1.62,1.62,0,0,1,15.8,16.516h3.189A1.62,1.62,0,0,1,17.394,17.883Zm5.642-2.838a.372.372,0,0,1-.35.228H12.1a.372.372,0,0,1-.35-.228.387.387,0,0,1,.053-.42l.771-.946a4.657,4.657,0,0,0,1.034-2.926V9a3.776,3.776,0,0,1,7.551-.018v1.77A4.657,4.657,0,0,0,22.2,13.678l.771.946A.367.367,0,0,1,23.036,15.045Z" fill="#f0933c" stroke="#f0933c" stroke-width="0.5"/>
          </g>
          <path id="Path_7453" data-name="Path 7453" d="M23.608,22.765l-2.422-2.422a5.782,5.782,0,1,0-.927.943l2.422,2.422a.642.642,0,0,0,.455.2.59.59,0,0,0,.455-.2A.683.683,0,0,0,23.608,22.765Zm-2.438-6.1a4.551,4.551,0,1,1-1.333-3.235A4.549,4.549,0,0,1,21.169,16.669Z" transform="translate(267.486 60.572)" fill="#f0933c"/>
          <g id="Group_8802" data-name="Group 8802" transform="translate(-984.256 -27)">
            <circle id="Ellipse_38-2" data-name="Ellipse 38" cx="2" cy="2" r="2" transform="translate(1316 102)" fill="#f0933c"/>
            <circle id="Ellipse_39-2" data-name="Ellipse 39" cx="2" cy="2" r="2" transform="translate(1322 102)" fill="#f0933c"/>
            <circle id="Ellipse_40-2" data-name="Ellipse 40" cx="2" cy="2" r="2" transform="translate(1328 102)" fill="#f0933c"/>
          </g>
          <g id="Group_8801" data-name="Group 8801" transform="translate(303.488 69)">
            <g id="Group_8710-2" data-name="Group 8710" transform="translate(2 2)">
              <path id="Path_7389-2" data-name="Path 7389" d="M13.786,16.086h1.5a.384.384,0,0,0,.386-.386V14.586a.384.384,0,0,0-.386-.386h-1.5a.384.384,0,0,0-.386.386V15.7A.384.384,0,0,0,13.786,16.086Z" transform="translate(-8.514 -8.971)" fill="#f0933c" fill-rule="evenodd"/>
              <path id="Path_7390-2" data-name="Path 7390" d="M20.786,22.186h1.5a.384.384,0,0,0,.386-.386V20.686a.384.384,0,0,0-.386-.386h-1.5a.384.384,0,0,0-.386.386V21.8A.36.36,0,0,0,20.786,22.186Z" transform="translate(-12.514 -12.457)" fill="#f0933c" fill-rule="evenodd"/>
              <path id="Path_7391-2" data-name="Path 7391" d="M20.786,16.086h1.5a.384.384,0,0,0,.386-.386V14.586a.384.384,0,0,0-.386-.386h-1.5a.384.384,0,0,0-.386.386V15.7A.384.384,0,0,0,20.786,16.086Z" transform="translate(-12.514 -8.971)" fill="#f0933c" fill-rule="evenodd"/>
              <path id="Path_7392-2" data-name="Path 7392" d="M6.786,22.186h1.5a.384.384,0,0,0,.386-.386V20.686a.384.384,0,0,0-.386-.386h-1.5a.384.384,0,0,0-.386.386V21.8A.36.36,0,0,0,6.786,22.186Z" transform="translate(-4.514 -12.457)" fill="#f0933c" fill-rule="evenodd"/>
              <path id="Path_7393-2" data-name="Path 7393" d="M6.786,16.086h1.5a.384.384,0,0,0,.386-.386V14.586a.384.384,0,0,0-.386-.386h-1.5a.384.384,0,0,0-.386.386V15.7A.384.384,0,0,0,6.786,16.086Z" transform="translate(-4.514 -8.971)" fill="#f0933c" fill-rule="evenodd"/>
              <path id="Path_7394-2" data-name="Path 7394" d="M13.786,22.186h1.5a.384.384,0,0,0,.386-.386V20.686a.384.384,0,0,0-.386-.386h-1.5a.384.384,0,0,0-.386.386V21.8A.36.36,0,0,0,13.786,22.186Z" transform="translate(-8.514 -12.457)" fill="#f0933c" fill-rule="evenodd"/>
              <path id="Path_7395-2" data-name="Path 7395" d="M13.271,2H2.771A.76.76,0,0,0,2,2.729v10.5A.768.768,0,0,0,2.771,14h10.5a.768.768,0,0,0,.771-.771V2.729A.824.824,0,0,0,13.271,2ZM9.5,3.5a.386.386,0,1,1-.386.386A.384.384,0,0,1,9.5,3.5Zm-3,0a.386.386,0,1,1-.386.386A.384.384,0,0,1,6.5,3.5Zm6.771,9.386a.384.384,0,0,1-.386.386H3.114a.384.384,0,0,1-.386-.386V5.729h10.5v7.157Z" transform="translate(-2 -2)" fill="#f0933c" fill-rule="evenodd"/>
            </g>
          </g>
          <path id="Path_7454" data-name="Path 7454" d="M31.216,19.156,27.276,15.2a.709.709,0,0,1,0-.988l3.94-3.94a.7.7,0,0,1,.988.988l-3.452,3.452L32.2,18.168a.7.7,0,0,1-.988.988Z" transform="translate(354.644 108.74) rotate(-90)" fill="#f0933c" fill-rule="evenodd"/>
          <path id="noun-folder-4462511-2" data-name="noun-folder-4462511" d="M132.468,89.234h-4.988l-.944-1.226a1.308,1.308,0,0,0-1.03-.507H123.8a1.3,1.3,0,0,0-1.3,1.3v6.934a1.3,1.3,0,0,0,1.3,1.3h8.668a1.3,1.3,0,0,0,1.3-1.3v-5.2a1.3,1.3,0,0,0-1.3-1.3Zm.433,1.813a1.287,1.287,0,0,0-.433-.08h-6.934a1.3,1.3,0,0,0-1.3,1.3v3.9H123.8a.433.433,0,0,1-.433-.433V88.8a.433.433,0,0,1,.433-.433h1.707a.429.429,0,0,1,.343.169l1.074,1.4a.434.434,0,0,0,.344.169h5.2a.433.433,0,0,1,.433.433Z" transform="translate(261.5 -14.92)" fill="#f0933c"/>
          <g id="Group-2" data-name="Group" transform="translate(396.638 60.372)">
            <path id="Compound_Path-2" data-name="Compound Path" d="M18.4,12.1H17.336v-.695a.409.409,0,1,0-.817,0V12.1H12.111v-.695a.409.409,0,1,0-.817,0V12.1H10.128a1.5,1.5,0,0,0-1.5,1.5v6.523a1.5,1.5,0,0,0,1.5,1.5H18.4a1.5,1.5,0,0,0,1.5-1.5V13.6A1.5,1.5,0,0,0,18.4,12.1Zm-6.883,6.907a1.1,1.1,0,1,1,1.1-1.1A1.1,1.1,0,0,1,11.517,19.011Zm2.771,0a1.1,1.1,0,1,1,1.1-1.1,1.1,1.1,0,0,1-1.1,1.1Zm2.771,0a1.1,1.1,0,1,1,1.1-1.1,1.1,1.1,0,0,1-1.1,1.1Zm2.021-4.334H9.447V13.6a.681.681,0,0,1,.681-.681h1.166v.531a.409.409,0,0,0,.817,0V12.92h4.408v.531a.409.409,0,0,0,.817,0V12.92H18.4a.681.681,0,0,1,.681.681Z" transform="translate(0 0)" fill="#f0933c"/>
          </g>
          <g id="noun-file-1017602-2" data-name="noun-file-1017602" transform="translate(205.335 -53.181)">
            <path id="Path_7441-2" data-name="Path 7441" d="M233.247,126.427h-2.9v-2.9Zm-3.441,1.076a.539.539,0,0,1-.538-.538V123.2H221.74a.539.539,0,0,0-.538.538v13.981a.539.539,0,0,0,.538.538h11.292a.539.539,0,0,0,.538-.538V127.5Z" transform="translate(0 0)" fill="#f0933c"/>
          </g>
          <path id="Path_7455" data-name="Path 7455" d="M109.455,35a4.455,4.455,0,1,0,4.455,4.455A4.455,4.455,0,0,0,109.455,35ZM112,39.773h-2.227V42h-.636V39.773h-2.227v-.636h2.227V36.909h.636v2.227H112Z" transform="translate(343.905 38.205)" fill="#f0933c"/>
          <path id="Path_7456" data-name="Path 7456" d="M31.216,19.156,27.276,15.2a.709.709,0,0,1,0-.988l3.94-3.94a.7.7,0,0,1,.988.988l-3.452,3.452L32.2,18.168a.7.7,0,0,1-.988.988Z" transform="translate(457.739 106.74) rotate(-90)" fill="#f0933c" stroke="#f0933c" stroke-width="1" fill-rule="evenodd"/>
          <path id="Path_7457" data-name="Path 7457" d="M31.216,19.156,27.276,15.2a.709.709,0,0,1,0-.988l3.94-3.94a.7.7,0,0,1,.988.988l-3.452,3.452L32.2,18.168a.7.7,0,0,1-.988.988Z" transform="translate(501.075 47.26) rotate(90)" fill="#f0933c" stroke="#f0933c" stroke-width="1" fill-rule="evenodd"/>
        </g>
      </g>
      <text id="_" data-name="+" transform="translate(505 40.226)" fill="#fff" font-size="12" font-family="Poppins-Medium, Poppins" font-weight="500" opacity="0.999"><tspan x="0" y="0">+</tspan></text>
      <text id="_2" data-name="+" transform="translate(505 81.226)" fill="#fff" font-size="12" font-family="Poppins-Medium, Poppins" font-weight="500" opacity="0.999"><tspan x="0" y="0">+</tspan></text>
      <path id="Path_7458" data-name="Path 7458" d="M7.344-3.756H1.224V-4.908h6.12Z" transform="translate(530.716 39.726)" fill="#fff" opacity="0.999"/>
      <path id="Path_7459" data-name="Path 7459" d="M7.344-3.756H1.224V-4.908h6.12Z" transform="translate(530.716 80.726)" fill="#fff" opacity="0.999"/>
      <g id="Group_8702" data-name="Group 8702" transform="translate(-399 -236)">
        <path id="Path_7294" data-name="Path 7294" d="M7.956-4.069H5.33v2.691H3.952V-4.069H1.326V-5.317H3.952V-8.008H5.33v2.691H7.956Z" transform="translate(948.4 271.725) rotate(45)" fill="#fff" opacity="0.999"/>
      </g>
      <g id="Group_8702-2" data-name="Group 8702" transform="translate(-399 -195.87)">
        <path id="Path_7294-2" data-name="Path 7294" d="M7.956-4.069H5.33v2.691H3.952V-4.069H1.326V-5.317H3.952V-8.008H5.33v2.691H7.956Z" transform="translate(948.4 271.725) rotate(45)" fill="#fff" opacity="0.999"/>
      </g>
    </g>
    <path id="Path_7460" data-name="Path 7460" d="M32.072,21.034l-4.755-4.769a.855.855,0,0,1,0-1.192l4.755-4.755a.843.843,0,0,1,1.192,1.192L29.1,15.675l4.166,4.166a.843.843,0,0,1-1.192,1.192Z" transform="translate(604.15 51.84) rotate(180)" fill="#fff" stroke="#fff" stroke-width="1" fill-rule="evenodd"/>
    <path id="Path_7461" data-name="Path 7461" d="M32.072,21.034l-4.755-4.769a.855.855,0,0,1,0-1.192l4.755-4.755a.843.843,0,0,1,1.192,1.192L29.1,15.675l4.166,4.166a.843.843,0,0,1-1.192,1.192Z" transform="translate(604.15 92.84) rotate(180)" fill="#fff" stroke="#fff" stroke-width="1" fill-rule="evenodd"/>
  </g>
</svg>
