<svg xmlns="http://www.w3.org/2000/svg" width="12.985" height="13.753" viewBox="0 0 12.985 13.753">
  <g id="noun_Home_99651" transform="translate(-24.425 -22.825)">
    <path id="Path_13" data-name="Path 13" d="M25.347,30.013a.674.674,0,0,0,.469-.2l.493-.493v6.34a.663.663,0,0,0,.666.666h7.894a.663.663,0,0,0,.666-.666v-6.34l.493.493a.641.641,0,0,0,.937,0,.662.662,0,0,0,0-.937l-5.575-5.6a.641.641,0,0,0-.937,0l-5.575,5.6a.641.641,0,0,0,0,.937A.674.674,0,0,0,25.347,30.013Zm5.575-5.3L34.2,27.99V35H27.641V27.99Z" fill="#fff" stroke="#fff" stroke-width="0.5"/>
  </g>
</svg>
