<svg xmlns="http://www.w3.org/2000/svg" width="131.24" height="18.624" viewBox="0 0 131.24 18.624">
  <g id="Group_8706" data-name="Group 8706" transform="translate(-34.753 -17.888)">
    <path id="Path_7410" data-name="Path 7410" d="M8.946-2.394h-5L3.114,0H.468L4.986-12.582H7.92L12.438,0H9.774ZM8.262-4.41,6.444-9.666,4.626-4.41Zm7.146-6.75a1.535,1.535,0,0,1-1.107-.423,1.4,1.4,0,0,1-.441-1.053,1.4,1.4,0,0,1,.441-1.053,1.535,1.535,0,0,1,1.107-.423,1.535,1.535,0,0,1,1.107.423,1.4,1.4,0,0,1,.441,1.053,1.4,1.4,0,0,1-.441,1.053A1.535,1.535,0,0,1,15.408-11.16ZM16.65-9.972V0H14.13V-9.972Zm5,1.548a3.543,3.543,0,0,1,1.269-1.242,3.529,3.529,0,0,1,1.791-.45V-7.47h-.666a2.553,2.553,0,0,0-1.791.558,2.572,2.572,0,0,0-.6,1.944V0h-2.52V-9.972h2.52Zm13.914-.252a3.913,3.913,0,0,1-.477,1.89A3.5,3.5,0,0,1,33.6-5.364a5.434,5.434,0,0,1-2.565.54H28.926V0h-2.52V-12.564h4.626a5.59,5.59,0,0,1,2.484.5,3.511,3.511,0,0,1,1.539,1.386A3.9,3.9,0,0,1,35.568-8.676ZM30.924-6.858a2.184,2.184,0,0,0,1.548-.477,1.758,1.758,0,0,0,.5-1.341q0-1.836-2.052-1.836h-2v3.654ZM39.87-13.32V0H37.35V-13.32Zm1.836,8.3a5.772,5.772,0,0,1,.6-2.682,4.42,4.42,0,0,1,1.638-1.8,4.361,4.361,0,0,1,2.313-.63,4.063,4.063,0,0,1,1.953.45A3.963,3.963,0,0,1,49.554-8.55V-9.972h2.538V0H49.554V-1.458A3.748,3.748,0,0,1,48.213-.3a4.1,4.1,0,0,1-1.971.459,4.238,4.238,0,0,1-2.3-.648,4.535,4.535,0,0,1-1.638-1.827A5.867,5.867,0,0,1,41.706-5.022Zm7.848.036a3.232,3.232,0,0,0-.36-1.575,2.538,2.538,0,0,0-.972-1.008,2.6,2.6,0,0,0-1.314-.351,2.552,2.552,0,0,0-1.3.342,2.575,2.575,0,0,0-.963,1,3.129,3.129,0,0,0-.369,1.557,3.233,3.233,0,0,0,.369,1.575,2.657,2.657,0,0,0,.972,1.035,2.469,2.469,0,0,0,1.287.36A2.6,2.6,0,0,0,48.222-2.4a2.538,2.538,0,0,0,.972-1.008A3.232,3.232,0,0,0,49.554-4.986ZM57.492-7.9v4.824a.953.953,0,0,0,.243.729,1.194,1.194,0,0,0,.819.225h1.17V0H58.14q-3.186,0-3.186-3.1V-7.9H53.766v-2.07h1.188v-2.466h2.538v2.466h2.232V-7.9Zm8.622,0H64.368V0H61.812V-7.9H60.678v-2.07h1.134v-.5a3.306,3.306,0,0,1,1.044-2.7,4.664,4.664,0,0,1,3.15-.81v2.124a1.87,1.87,0,0,0-1.278.306,1.532,1.532,0,0,0-.36,1.17v.414h1.746ZM72.18.162a5.252,5.252,0,0,1-2.592-.639,4.6,4.6,0,0,1-1.809-1.809,5.421,5.421,0,0,1-.657-2.7,5.305,5.305,0,0,1,.675-2.7,4.691,4.691,0,0,1,1.845-1.809,5.355,5.355,0,0,1,2.61-.639,5.355,5.355,0,0,1,2.61.639,4.691,4.691,0,0,1,1.845,1.809,5.305,5.305,0,0,1,.675,2.7,5.2,5.2,0,0,1-.693,2.7A4.8,4.8,0,0,1,74.817-.477,5.444,5.444,0,0,1,72.18.162Zm0-2.2a2.621,2.621,0,0,0,1.287-.333,2.42,2.42,0,0,0,.963-1,3.367,3.367,0,0,0,.36-1.62,3,3,0,0,0-.747-2.187,2.456,2.456,0,0,0-1.827-.765,2.4,2.4,0,0,0-1.809.765,3.047,3.047,0,0,0-.729,2.187A3.1,3.1,0,0,0,70.389-2.8,2.341,2.341,0,0,0,72.18-2.034Zm9.576-6.39a3.543,3.543,0,0,1,1.269-1.242,3.529,3.529,0,0,1,1.791-.45V-7.47H84.15a2.553,2.553,0,0,0-1.791.558,2.572,2.572,0,0,0-.6,1.944V0h-2.52V-9.972h2.52Zm17.136-1.692a4,4,0,0,1,2.961,1.125,4.246,4.246,0,0,1,1.125,3.141V0h-2.52V-5.508A2.491,2.491,0,0,0,99.864-7.3a2.136,2.136,0,0,0-1.62-.621,2.166,2.166,0,0,0-1.629.621,2.468,2.468,0,0,0-.6,1.791V0h-2.52V-5.508A2.491,2.491,0,0,0,92.9-7.3a2.136,2.136,0,0,0-1.62-.621,2.189,2.189,0,0,0-1.647.621,2.468,2.468,0,0,0-.6,1.791V0h-2.52V-9.972h2.52v1.206a3.354,3.354,0,0,1,1.251-.99,3.9,3.9,0,0,1,1.683-.36,4.329,4.329,0,0,1,2.088.495,3.469,3.469,0,0,1,1.422,1.413,3.61,3.61,0,0,1,1.413-1.386A4.023,4.023,0,0,1,98.892-10.116Z" transform="translate(63.014 32)" fill="#db344c"/>
    <g id="accorian-logo" transform="translate(34.753 18.545)">
      <g id="Group_8696" data-name="Group 8696" transform="translate(0 0)">
        <path id="Path_7275" data-name="Path 7275" d="M25.563,17.433,17.982,9.852V9.8L10.4,17.433l1.61,1.61,5.972-6.024h0l5.972,6.024Z" transform="translate(-5.986 -5.438)" fill="none"/>
        <path id="Path_7276" data-name="Path 7276" d="M32.582,13.4l-1.61,1.61L25,8.982V13.4l5.972,5.972L37,13.4,25,1.4V5.814Z" transform="translate(-13.005 -1.4)" fill="#db344c"/>
        <path id="Path_7277" data-name="Path 7277" d="M7.924,19.367,13.9,13.4h0V8.982h0L7.924,15.005,6.314,13.4,13.9,5.762V1.4h0l-12,12Z" transform="translate(-1.9 -1.4)" fill="#1c204d"/>
      </g>
    </g>
  </g>
</svg>
