<svg xmlns="http://www.w3.org/2000/svg" width="12.7" height="14.841" viewBox="0 0 12.7 14.841">
  <g id="noun_logout_3391395_1_" data-name="noun_logout_3391395 (1)" transform="translate(-1.75 -0.75)">
    <g id="_13" data-name="13" transform="translate(2 1)">
      <path id="Path_22" data-name="Path 22" d="M12.573,9.013H7.507A.507.507,0,1,1,7.507,8h5.066a.507.507,0,0,1,0,1.013Z" transform="translate(-1.934 -0.829)" fill="#fff" stroke="#fff" stroke-width="0.5"/>
      <path id="Path_23" data-name="Path 23" d="M13.533,9.04a.476.476,0,0,1-.355-.152L11.152,6.861a.5.5,0,0,1,.709-.709l2.027,2.027a.486.486,0,0,1,0,.709.476.476,0,0,1-.355.152Z" transform="translate(-1.881 -0.856)" fill="#fff" stroke="#fff" stroke-width="0.5"/>
      <path id="Path_24" data-name="Path 24" d="M11.507,11.04a.476.476,0,0,1-.355-.152.486.486,0,0,1,0-.709l2.027-2.027a.5.5,0,1,1,.709.709l-2.027,2.027a.476.476,0,0,1-.355.152Z" transform="translate(-1.881 -0.829)" fill="#fff" stroke="#fff" stroke-width="0.5"/>
      <path id="Path_25" data-name="Path 25" d="M10.613,15.341H2.507A.507.507,0,0,1,2,14.835V1.507A.507.507,0,0,1,2.507,1h8.106a.507.507,0,0,1,.507.507V3.689a.507.507,0,1,1-1.013,0V2.013H3.013V14.328h7.093v-.662a.507.507,0,1,1,1.013,0v1.169A.507.507,0,0,1,10.613,15.341Z" transform="translate(-2 -1)" fill="#fff" stroke="#fff" stroke-width="0.5"/>
    </g>
  </g>
</svg>
