<svg xmlns="http://www.w3.org/2000/svg" width="14.41" height="17.144" viewBox="0 0 14.41 17.144">
  <g id="noun_notification_3408002" transform="translate(-10.193 -2.25)">
    <path id="Path_26" data-name="Path 26" d="M23.965,13.836l-.788-.946a3.337,3.337,0,0,1-.753-2.12V9a5.049,5.049,0,0,0-4.4-4.993V3.131a.631.631,0,1,0-1.261,0v.876A5.049,5.049,0,0,0,12.366,9v1.77a3.337,3.337,0,0,1-.753,2.12l-.771.946a1.655,1.655,0,0,0,1.279,2.7h2.418a2.887,2.887,0,0,0,5.747,0H22.7a1.643,1.643,0,0,0,1.489-.946A1.718,1.718,0,0,0,23.965,13.836Zm-6.57,4.047A1.62,1.62,0,0,1,15.8,16.516h3.189A1.62,1.62,0,0,1,17.394,17.883Zm5.642-2.838a.372.372,0,0,1-.35.228H12.1a.372.372,0,0,1-.35-.228.387.387,0,0,1,.053-.42l.771-.946a4.657,4.657,0,0,0,1.034-2.926V9a3.776,3.776,0,0,1,7.551-.018v1.77A4.657,4.657,0,0,0,22.2,13.678l.771.946A.367.367,0,0,1,23.036,15.045Z" fill="#397ac6" stroke="#397ac6" stroke-width="0.5"/>
  </g>
</svg>
