<svg xmlns="http://www.w3.org/2000/svg" width="13.848" height="13.848" viewBox="0 0 13.848 13.848">
  <g id="noun_profil_2022869" transform="translate(-22.74 -22.74)">
    <path id="Path_21" data-name="Path 21" d="M29.664,22.74a6.924,6.924,0,1,0,6.924,6.924,6.924,6.924,0,0,0-6.924-6.924Zm0,1.13a5.794,5.794,0,0,1,4.8,9.032,5.651,5.651,0,0,0-2.575-2.222,3.109,3.109,0,1,0-4.455,0,5.651,5.651,0,0,0-2.575,2.228,5.794,5.794,0,0,1,4.8-9.037Zm-1.979,4.646a1.979,1.979,0,1,1,1.979,1.976A1.979,1.979,0,0,1,27.685,28.516Zm-2.047,5.3a4.544,4.544,0,0,1,2.314-2.141,4.1,4.1,0,0,1,.742-.236,2.85,2.85,0,0,0,1.94,0,4.173,4.173,0,0,1,.762.229A4.541,4.541,0,0,1,33.7,33.809a5.766,5.766,0,0,1-8.052,0Z" transform="translate(0)" fill="#fff"/>
  </g>
</svg>
