<svg xmlns="http://www.w3.org/2000/svg" width="15.621" height="15.405" viewBox="0 0 15.621 15.405">
  <g id="noun_menu_678016" transform="translate(-13 -19.684)">
    <g id="Group_2" data-name="Group 2" transform="translate(5 18.684)">
      <g id="Group_1" data-name="Group 1">
        <path id="Path_5485" data-name="Path 5485" d="M32,61.927a1.241,1.241,0,0,1,1.244-1.243h9.4a1.243,1.243,0,1,1,0,2.487h-9.4A1.241,1.241,0,0,1,32,61.927Zm0,6.459a1.244,1.244,0,0,1,1.237-1.243H46.385a1.243,1.243,0,0,1,0,2.487H33.237A1.237,1.237,0,0,1,32,68.387Zm0,6.459A1.247,1.247,0,0,1,33.252,73.6h6.9a1.243,1.243,0,1,1,0,2.487h-6.9A1.244,1.244,0,0,1,32,74.846Z" transform="translate(-24 -59.684)" fill="#fff"/>
      </g>
    </g>
  </g>
</svg>
