<svg xmlns="http://www.w3.org/2000/svg" width="130.985" height="48.91" viewBox="0 0 130.985 48.91">
  <g id="Group_8698" data-name="Group 8698" transform="translate(20.526 -19.297)">
    <path id="Path_7419" data-name="Path 7419" d="M12.489,0h3.4L10.12-16.077H6.371L.6,0H3.979L5.037-3.059h6.394ZM10.557-5.635H5.911l2.323-6.716ZM18.055,0h3.22V-12.742h-3.22Zm1.633-14.26a1.9,1.9,0,0,0,1.978-1.886,1.9,1.9,0,0,0-1.978-1.886,1.888,1.888,0,0,0-1.978,1.886A1.888,1.888,0,0,0,19.688-14.26Zm7.981,7.912c0-2.461,1.15-3.2,3.059-3.2h.851v-3.381a4.419,4.419,0,0,0-3.91,2.162v-1.978h-3.22V0h3.22Zm9.292-2.415v-4.669h2.553c1.817,0,2.622.874,2.622,2.346,0,1.426-.805,2.323-2.622,2.323Zm8.487-2.323c0-2.783-1.932-4.968-5.8-4.968H33.741V0h3.22V-6.164h2.691C43.792-6.164,45.448-8.648,45.448-11.086ZM47.725,0h3.22V-17.02h-3.22Zm5.566-6.417c0,3.979,2.576,6.624,5.8,6.624a5.025,5.025,0,0,0,4.232-2.07V0h3.243V-12.742H63.319v1.817a5.039,5.039,0,0,0-4.209-2.024C55.867-12.949,53.291-10.4,53.291-6.417Zm10.028.046a3.431,3.431,0,0,1-3.381,3.749,3.482,3.482,0,0,1-3.358-3.8,3.4,3.4,0,0,1,3.358-3.7A3.431,3.431,0,0,1,63.319-6.371Zm6.9,2.415C70.219-1.035,71.852,0,74.29,0h2.024V-2.714H74.819c-1.012,0-1.357-.368-1.357-1.219V-10.1h2.852v-2.645H73.462v-3.151H70.219v3.151H68.7V-10.1h1.518ZM78.982,0h3.266V-10.1h2.231v-2.645H82.248v-.529c0-1.426.529-1.932,2.093-1.886v-2.714c-3.588-.092-5.359,1.357-5.359,4.485v.644H77.533V-10.1h1.449ZM98.877-6.371a6.3,6.3,0,0,0-6.555-6.578,6.3,6.3,0,0,0-6.555,6.578A6.237,6.237,0,0,0,92.23.207,6.37,6.37,0,0,0,98.877-6.371Zm-9.844,0c0-2.553,1.541-3.772,3.243-3.772s3.289,1.219,3.289,3.772c0,2.53-1.633,3.772-3.335,3.772C90.505-2.6,89.033-3.841,89.033-6.371Zm15.433.023c0-2.461,1.15-3.2,3.059-3.2h.851v-3.381a4.419,4.419,0,0,0-3.91,2.162v-1.978h-3.22V0h3.22ZM128.363,0h3.22V-7.475c0-3.519-2.162-5.451-5.221-5.451a5.045,5.045,0,0,0-4.37,2.438,4.877,4.877,0,0,0-4.485-2.438,4.64,4.64,0,0,0-3.749,1.725v-1.541h-3.22V0h3.22V-7.038c0-2.024,1.127-3.082,2.875-3.082,1.7,0,2.829,1.058,2.829,3.082V0h3.22V-7.038c0-2.024,1.127-3.082,2.852-3.082,1.7,0,2.829,1.058,2.829,3.082Z" transform="translate(-21.124 68)" fill="#fff"/>
    <g id="accorian-logo" transform="translate(31.753 19.297)">
      <g id="Group_8696" data-name="Group 8696" transform="translate(0 0)">
        <path id="Path_7275" data-name="Path 7275" d="M27.621,18.469l-8.61-8.61V9.8L10.4,18.469,12.228,20.3l6.782-6.841h0L25.792,20.3Z" transform="translate(-5.387 -4.846)" fill="none"/>
        <path id="Path_7276" data-name="Path 7276" d="M33.61,15.023l-1.828,1.828L25,10.01v5.013l6.782,6.782,6.841-6.782L25,1.4V6.413Z" transform="translate(-11.377 -1.4)" fill="#fff"/>
        <path id="Path_7277" data-name="Path 7277" d="M8.741,21.805l6.782-6.782h0V10.01h0L8.741,16.851,6.913,15.023l8.61-8.669V1.4h0L1.9,15.023Z" transform="translate(-1.9 -1.4)" fill="#fff"/>
      </g>
    </g>
  </g>
</svg>
