<svg xmlns="http://www.w3.org/2000/svg" width="17.693" height="16.918" viewBox="0 0 17.693 16.918">
  <g id="Group_8700" data-name="Group 8700" transform="translate(-2709.6 -2529.6)">
    <path id="Path_7278" data-name="Path 7278" d="M18.547,8.27H8.319A2.323,2.323,0,0,0,6,10.589v6.058a2.323,2.323,0,0,0,2.319,2.319h5.326l.27.2,3.336,2.493-.4-1.4-.37-1.292h2.064a2.323,2.323,0,0,0,2.319-2.321V10.589A2.323,2.323,0,0,0,18.547,8.27Zm-8.54,6.374a.971.971,0,1,1,.965-.958.971.971,0,0,1-.965.958Zm3.416,0a.971.971,0,1,1,.98-.966A.982.982,0,0,1,13.423,14.644Zm3.436,0a.97.97,0,1,1,.686-.288A.971.971,0,0,1,16.859,14.644Z" transform="translate(2705.014 2522.744)" fill="none" stroke="#fff" stroke-width="0.8"/>
    <path id="Path_7279" data-name="Path 7279" d="M13.56,2.27H3.333A3.333,3.333,0,0,0,0,5.6v6.058a3.333,3.333,0,0,0,3.333,3.333H8.322L12.4,18.035a1.461,1.461,0,0,0,.787.353c.372,0,.507-.392.3-1.107l-.657-2.287h.72a3.333,3.333,0,0,0,3.335-3.333V5.6A3.333,3.333,0,0,0,13.56,2.27Zm2.319,9.391A2.323,2.323,0,0,1,13.56,13.98H11.5l.37,1.292.4,1.4L8.928,14.181l-.27-.2H3.333a2.323,2.323,0,0,1-2.319-2.319V5.6A2.323,2.323,0,0,1,3.333,3.284H13.56A2.323,2.323,0,0,1,15.88,5.6Z" transform="translate(2710 2527.73)" fill="#fff" stroke="#fff" stroke-width="0.8"/>
    <path id="Path_7280" data-name="Path 7280" d="M45.2,34.51a.971.971,0,1,0,.968.976A.971.971,0,0,0,45.2,34.51Z" transform="translate(2673.242 2500.936)" fill="#fff" stroke="#fff" stroke-width="0.8"/>
    <path id="Path_7281" data-name="Path 7281" d="M24.925,34.51a.968.968,0,1,0,.683.292A.971.971,0,0,0,24.925,34.51Z" transform="translate(2690.104 2500.937)" fill="#fff" stroke="#fff" stroke-width="0.8"/>
    <path id="Path_7282" data-name="Path 7282" d="M65.485,34.5a.971.971,0,1,0,.958.965A.971.971,0,0,0,65.485,34.5Z" transform="translate(2656.396 2500.945)" fill="#fff" stroke="#fff" stroke-width="0.8"/>
  </g>
</svg>
